<svg width="239" height="24" viewBox="0 0 239 24" fill="none" xmlns="http://www.w3.org/2000/svg">
<path d="M230.771 11H206V13H230.771V16L239 12L230.771 8V11Z" fill="#006DFE"/>
<path d="M10.784 6.536L6.112 18H4.72L0.048 6.536H1.288C1.42667 6.536 1.53867 6.57067 1.624 6.64C1.70933 6.70933 1.77333 6.79733 1.816 6.904L5.048 14.992C5.11733 15.1733 5.184 15.3707 5.248 15.584C5.31733 15.7973 5.37867 16.0213 5.432 16.256C5.48533 16.0213 5.54133 15.7973 5.6 15.584C5.65867 15.3707 5.72267 15.1733 5.792 14.992L9.016 6.904C9.048 6.81333 9.10933 6.73067 9.2 6.656C9.296 6.576 9.41067 6.536 9.544 6.536H10.784ZM13.8441 18H12.2921V6.536H13.8441V18ZM23.8485 16.736L23.8405 18H16.7765V6.536H23.8405V7.8H18.3285V11.608H22.7925V12.824H18.3285V16.736H23.8485ZM40.8669 6.536L37.2909 18H35.8989L32.9949 9.256C32.9682 9.17067 32.9415 9.08 32.9149 8.984C32.8935 8.888 32.8695 8.78667 32.8429 8.68C32.8162 8.78667 32.7895 8.888 32.7629 8.984C32.7362 9.08 32.7095 9.17067 32.6829 9.256L29.7629 18H28.3709L24.7949 6.536H26.0829C26.2215 6.536 26.3362 6.57067 26.4269 6.64C26.5229 6.70933 26.5842 6.79733 26.6109 6.904L28.9789 14.872C29.0162 15.016 29.0509 15.1707 29.0829 15.336C29.1202 15.5013 29.1549 15.6773 29.1869 15.864C29.2242 15.6773 29.2615 15.5013 29.2989 15.336C29.3415 15.1653 29.3869 15.0107 29.4349 14.872L32.1309 6.904C32.1629 6.81333 32.2242 6.73067 32.3149 6.656C32.4109 6.576 32.5255 6.536 32.6589 6.536H33.1069C33.2455 6.536 33.3575 6.57067 33.4429 6.64C33.5282 6.70933 33.5922 6.79733 33.6349 6.904L36.3229 14.872C36.3709 15.0107 36.4135 15.16 36.4509 15.32C36.4935 15.48 36.5335 15.648 36.5709 15.824C36.5975 15.648 36.6269 15.48 36.6589 15.32C36.6909 15.16 36.7255 15.0107 36.7629 14.872L39.1389 6.904C39.1655 6.808 39.2242 6.72267 39.3149 6.648C39.4109 6.57333 39.5255 6.536 39.6589 6.536H40.8669ZM55.7364 6.536V18H54.9604C54.8377 18 54.7337 17.9787 54.6484 17.936C54.5684 17.8933 54.4884 17.8213 54.4084 17.72L47.7764 9.08C47.787 9.21333 47.795 9.344 47.8004 9.472C47.8057 9.6 47.8084 9.72 47.8084 9.832V18H46.4484V6.536H47.2484C47.3177 6.536 47.3764 6.54133 47.4244 6.552C47.4724 6.55733 47.515 6.57067 47.5524 6.592C47.5897 6.608 47.627 6.63467 47.6644 6.672C47.7017 6.704 47.7417 6.74667 47.7844 6.8L54.4164 15.432C54.4057 15.2933 54.395 15.16 54.3844 15.032C54.379 14.8987 54.3764 14.7733 54.3764 14.656V6.536H55.7364ZM65.7391 16.736L65.7311 18H58.6671V6.536H65.7311V7.8H60.2191V11.608H64.6831V12.824H60.2191V16.736H65.7391ZM69.4535 18H67.9015V6.536H69.4535V18ZM81.6979 12.488V16.888C81.1219 17.304 80.5059 17.616 79.8499 17.824C79.1992 18.0267 78.4845 18.128 77.7059 18.128C76.7832 18.128 75.9512 17.9867 75.2099 17.704C74.4685 17.416 73.8339 17.016 73.3059 16.504C72.7832 15.9867 72.3805 15.368 72.0979 14.648C71.8152 13.928 71.6739 13.136 71.6739 12.272C71.6739 11.3973 71.8099 10.6 72.0819 9.88C72.3592 9.16 72.7512 8.544 73.2579 8.032C73.7645 7.51467 74.3805 7.11467 75.1059 6.832C75.8312 6.54933 76.6419 6.408 77.5379 6.408C77.9912 6.408 78.4125 6.44267 78.8019 6.512C79.1912 6.576 79.5512 6.672 79.8819 6.8C80.2125 6.92267 80.5192 7.07467 80.8019 7.256C81.0845 7.432 81.3485 7.632 81.5939 7.856L81.1539 8.56C81.0845 8.66667 80.9939 8.736 80.8819 8.768C80.7752 8.79467 80.6552 8.768 80.5219 8.688C80.3939 8.61333 80.2472 8.52267 80.0819 8.416C79.9165 8.30933 79.7139 8.208 79.4739 8.112C79.2392 8.01067 78.9592 7.92533 78.6339 7.856C78.3139 7.78667 77.9325 7.752 77.4899 7.752C76.8445 7.752 76.2605 7.85867 75.7379 8.072C75.2152 8.28 74.7699 8.58133 74.4019 8.976C74.0339 9.36533 73.7512 9.84 73.5539 10.4C73.3565 10.9547 73.2579 11.5787 73.2579 12.272C73.2579 12.992 73.3592 13.6373 73.5619 14.208C73.7699 14.7733 74.0632 15.256 74.4419 15.656C74.8259 16.0507 75.2899 16.352 75.8339 16.56C76.3779 16.768 76.9885 16.872 77.6659 16.872C78.1992 16.872 78.6712 16.8133 79.0819 16.696C79.4979 16.5733 79.9032 16.4053 80.2979 16.192V13.672H78.5139C78.4125 13.672 78.3299 13.6427 78.2659 13.584C78.2072 13.5253 78.1779 13.4533 78.1779 13.368V12.488H81.6979ZM93.3614 6.536V18H91.8094V12.784H85.6254V18H84.0734V6.536H85.6254V11.648H91.8094V6.536H93.3614ZM100.316 16.768C100.759 16.768 101.14 16.7173 101.46 16.616C101.78 16.5147 102.041 16.3733 102.244 16.192C102.452 16.0053 102.604 15.7867 102.7 15.536C102.796 15.28 102.844 15 102.844 14.696C102.844 14.104 102.633 13.6373 102.212 13.296C101.791 12.9493 101.159 12.776 100.316 12.776H97.8361V16.768H100.316ZM97.8361 7.76V11.672H99.8841C100.321 11.672 100.7 11.624 101.02 11.528C101.345 11.432 101.612 11.2987 101.82 11.128C102.033 10.9573 102.191 10.752 102.292 10.512C102.393 10.2667 102.444 10 102.444 9.712C102.444 9.03467 102.241 8.54133 101.836 8.232C101.431 7.91733 100.801 7.76 99.9481 7.76H97.8361ZM99.9481 6.536C100.652 6.536 101.257 6.60533 101.764 6.744C102.276 6.88267 102.695 7.08 103.02 7.336C103.351 7.592 103.593 7.90667 103.748 8.28C103.903 8.648 103.98 9.064 103.98 9.528C103.98 9.81067 103.935 10.0827 103.844 10.344C103.759 10.6 103.628 10.84 103.452 11.064C103.276 11.288 103.052 11.4907 102.78 11.672C102.513 11.848 102.199 11.992 101.836 12.104C102.679 12.264 103.311 12.5653 103.732 13.008C104.159 13.4453 104.372 14.0213 104.372 14.736C104.372 15.2213 104.281 15.664 104.1 16.064C103.924 16.464 103.663 16.808 103.316 17.096C102.975 17.384 102.553 17.608 102.052 17.768C101.551 17.9227 100.98 18 100.34 18H96.2921V6.536H99.9481ZM117.228 12.272C117.228 13.1307 117.092 13.92 116.82 14.64C116.548 15.3547 116.164 15.9707 115.668 16.488C115.172 17.0053 114.575 17.408 113.876 17.696C113.183 17.9787 112.415 18.12 111.572 18.12C110.729 18.12 109.961 17.9787 109.268 17.696C108.575 17.408 107.98 17.0053 107.484 16.488C106.988 15.9707 106.604 15.3547 106.332 14.64C106.06 13.92 105.924 13.1307 105.924 12.272C105.924 11.4133 106.06 10.6267 106.332 9.912C106.604 9.192 106.988 8.57333 107.484 8.056C107.98 7.53333 108.575 7.128 109.268 6.84C109.961 6.552 110.729 6.408 111.572 6.408C112.415 6.408 113.183 6.552 113.876 6.84C114.575 7.128 115.172 7.53333 115.668 8.056C116.164 8.57333 116.548 9.192 116.82 9.912C117.092 10.6267 117.228 11.4133 117.228 12.272ZM115.636 12.272C115.636 11.568 115.54 10.936 115.348 10.376C115.156 9.816 114.884 9.344 114.532 8.96C114.18 8.57067 113.753 8.272 113.252 8.064C112.751 7.856 112.191 7.752 111.572 7.752C110.959 7.752 110.401 7.856 109.9 8.064C109.399 8.272 108.969 8.57067 108.612 8.96C108.26 9.344 107.988 9.816 107.796 10.376C107.604 10.936 107.508 11.568 107.508 12.272C107.508 12.976 107.604 13.608 107.796 14.168C107.988 14.7227 108.26 15.1947 108.612 15.584C108.969 15.968 109.399 16.264 109.9 16.472C110.401 16.6747 110.959 16.776 111.572 16.776C112.191 16.776 112.751 16.6747 113.252 16.472C113.753 16.264 114.18 15.968 114.532 15.584C114.884 15.1947 115.156 14.7227 115.348 14.168C115.54 13.608 115.636 12.976 115.636 12.272ZM122.624 12.088C123.072 12.088 123.467 12.0347 123.808 11.928C124.155 11.816 124.443 11.6613 124.672 11.464C124.907 11.2613 125.083 11.0213 125.2 10.744C125.318 10.4667 125.376 10.16 125.376 9.824C125.376 9.14133 125.152 8.62667 124.704 8.28C124.256 7.93333 123.584 7.76 122.688 7.76H120.992V12.088H122.624ZM127.92 18H126.544C126.262 18 126.054 17.8907 125.92 17.672L122.944 13.576C122.854 13.448 122.755 13.3573 122.648 13.304C122.547 13.2453 122.387 13.216 122.168 13.216H120.992V18H119.448V6.536H122.688C123.414 6.536 124.04 6.61067 124.568 6.76C125.096 6.904 125.531 7.11467 125.872 7.392C126.219 7.66933 126.475 8.00533 126.64 8.4C126.806 8.78933 126.888 9.22667 126.888 9.712C126.888 10.1173 126.824 10.496 126.696 10.848C126.568 11.2 126.382 11.5173 126.136 11.8C125.896 12.0773 125.6 12.3147 125.248 12.512C124.902 12.7093 124.507 12.8587 124.064 12.96C124.262 13.072 124.432 13.2347 124.576 13.448L127.92 18ZM138.768 6.536V18H137.216V12.784H131.032V18H129.48V6.536H131.032V11.648H137.216V6.536H138.768ZM152.29 12.272C152.29 13.1307 152.154 13.92 151.882 14.64C151.61 15.3547 151.226 15.9707 150.73 16.488C150.234 17.0053 149.637 17.408 148.938 17.696C148.245 17.9787 147.477 18.12 146.634 18.12C145.792 18.12 145.024 17.9787 144.33 17.696C143.637 17.408 143.042 17.0053 142.546 16.488C142.05 15.9707 141.666 15.3547 141.394 14.64C141.122 13.92 140.986 13.1307 140.986 12.272C140.986 11.4133 141.122 10.6267 141.394 9.912C141.666 9.192 142.05 8.57333 142.546 8.056C143.042 7.53333 143.637 7.128 144.33 6.84C145.024 6.552 145.792 6.408 146.634 6.408C147.477 6.408 148.245 6.552 148.938 6.84C149.637 7.128 150.234 7.53333 150.73 8.056C151.226 8.57333 151.61 9.192 151.882 9.912C152.154 10.6267 152.29 11.4133 152.29 12.272ZM150.698 12.272C150.698 11.568 150.602 10.936 150.41 10.376C150.218 9.816 149.946 9.344 149.594 8.96C149.242 8.57067 148.816 8.272 148.314 8.064C147.813 7.856 147.253 7.752 146.634 7.752C146.021 7.752 145.464 7.856 144.962 8.064C144.461 8.272 144.032 8.57067 143.674 8.96C143.322 9.344 143.05 9.816 142.858 10.376C142.666 10.936 142.57 11.568 142.57 12.272C142.57 12.976 142.666 13.608 142.858 14.168C143.05 14.7227 143.322 15.1947 143.674 15.584C144.032 15.968 144.461 16.264 144.962 16.472C145.464 16.6747 146.021 16.776 146.634 16.776C147.253 16.776 147.813 16.6747 148.314 16.472C148.816 16.264 149.242 15.968 149.594 15.584C149.946 15.1947 150.218 14.7227 150.41 14.168C150.602 13.608 150.698 12.976 150.698 12.272ZM165.103 12.272C165.103 13.1307 164.967 13.92 164.695 14.64C164.423 15.3547 164.039 15.9707 163.543 16.488C163.047 17.0053 162.45 17.408 161.751 17.696C161.058 17.9787 160.29 18.12 159.447 18.12C158.604 18.12 157.836 17.9787 157.143 17.696C156.45 17.408 155.855 17.0053 155.359 16.488C154.863 15.9707 154.479 15.3547 154.207 14.64C153.935 13.92 153.799 13.1307 153.799 12.272C153.799 11.4133 153.935 10.6267 154.207 9.912C154.479 9.192 154.863 8.57333 155.359 8.056C155.855 7.53333 156.45 7.128 157.143 6.84C157.836 6.552 158.604 6.408 159.447 6.408C160.29 6.408 161.058 6.552 161.751 6.84C162.45 7.128 163.047 7.53333 163.543 8.056C164.039 8.57333 164.423 9.192 164.695 9.912C164.967 10.6267 165.103 11.4133 165.103 12.272ZM163.511 12.272C163.511 11.568 163.415 10.936 163.223 10.376C163.031 9.816 162.759 9.344 162.407 8.96C162.055 8.57067 161.628 8.272 161.127 8.064C160.626 7.856 160.066 7.752 159.447 7.752C158.834 7.752 158.276 7.856 157.775 8.064C157.274 8.272 156.844 8.57067 156.487 8.96C156.135 9.344 155.863 9.816 155.671 10.376C155.479 10.936 155.383 11.568 155.383 12.272C155.383 12.976 155.479 13.608 155.671 14.168C155.863 14.7227 156.135 15.1947 156.487 15.584C156.844 15.968 157.274 16.264 157.775 16.472C158.276 16.6747 158.834 16.776 159.447 16.776C160.066 16.776 160.626 16.6747 161.127 16.472C161.628 16.264 162.055 15.968 162.407 15.584C162.759 15.1947 163.031 14.7227 163.223 14.168C163.415 13.608 163.511 12.976 163.511 12.272ZM177.259 12.272C177.259 13.1307 177.123 13.912 176.851 14.616C176.579 15.32 176.195 15.9227 175.699 16.424C175.203 16.9253 174.606 17.3147 173.907 17.592C173.214 17.864 172.446 18 171.603 18H167.323V6.536H171.603C172.446 6.536 173.214 6.67467 173.907 6.952C174.606 7.224 175.203 7.61333 175.699 8.12C176.195 8.62133 176.579 9.224 176.851 9.928C177.123 10.632 177.259 11.4133 177.259 12.272ZM175.667 12.272C175.667 11.568 175.571 10.9387 175.379 10.384C175.187 9.82933 174.915 9.36 174.563 8.976C174.211 8.592 173.785 8.29867 173.283 8.096C172.782 7.89333 172.222 7.792 171.603 7.792H168.875V16.744H171.603C172.222 16.744 172.782 16.6427 173.283 16.44C173.785 16.2373 174.211 15.9467 174.563 15.568C174.915 15.184 175.187 14.7147 175.379 14.16C175.571 13.6053 175.667 12.976 175.667 12.272Z" fill="#006DFE"/>
</svg>
