<svg width="203" height="24" viewBox="0 0 203 24" fill="none" xmlns="http://www.w3.org/2000/svg">
<path d="M194.771 11H170V13H194.771V16L203 12L194.771 8V11Z" fill="#006DFE"/>
<path d="M11.7215 6.536L7.0495 18H5.6575L0.9855 6.536H2.2255C2.36417 6.536 2.47617 6.57067 2.5615 6.64C2.64683 6.70933 2.71083 6.79733 2.7535 6.904L5.9855 14.992C6.05483 15.1733 6.1215 15.3707 6.1855 15.584C6.25483 15.7973 6.31617 16.0213 6.3695 16.256C6.42283 16.0213 6.47883 15.7973 6.5375 15.584C6.59617 15.3707 6.66017 15.1733 6.7295 14.992L9.9535 6.904C9.9855 6.81333 10.0468 6.73067 10.1375 6.656C10.2335 6.576 10.3482 6.536 10.4815 6.536H11.7215ZM14.7816 18H13.2296V6.536H14.7816V18ZM24.786 16.736L24.778 18H17.714V6.536H24.778V7.8H19.266V11.608H23.73V12.824H19.266V16.736H24.786ZM41.8044 6.536L38.2284 18H36.8364L33.9324 9.256C33.9057 9.17067 33.879 9.08 33.8524 8.984C33.831 8.888 33.807 8.78667 33.7804 8.68C33.7537 8.78667 33.727 8.888 33.7004 8.984C33.6737 9.08 33.647 9.17067 33.6204 9.256L30.7004 18H29.3084L25.7324 6.536H27.0204C27.159 6.536 27.2737 6.57067 27.3644 6.64C27.4604 6.70933 27.5217 6.79733 27.5484 6.904L29.9164 14.872C29.9537 15.016 29.9884 15.1707 30.0204 15.336C30.0577 15.5013 30.0924 15.6773 30.1244 15.864C30.1617 15.6773 30.199 15.5013 30.2364 15.336C30.279 15.1653 30.3244 15.0107 30.3724 14.872L33.0684 6.904C33.1004 6.81333 33.1617 6.73067 33.2524 6.656C33.3484 6.576 33.463 6.536 33.5964 6.536H34.0444C34.183 6.536 34.295 6.57067 34.3804 6.64C34.4657 6.70933 34.5297 6.79733 34.5724 6.904L37.2604 14.872C37.3084 15.0107 37.351 15.16 37.3884 15.32C37.431 15.48 37.471 15.648 37.5084 15.824C37.535 15.648 37.5644 15.48 37.5964 15.32C37.6284 15.16 37.663 15.0107 37.7004 14.872L40.0764 6.904C40.103 6.808 40.1617 6.72267 40.2524 6.648C40.3484 6.57333 40.463 6.536 40.5964 6.536H41.8044ZM50.7699 12.48C51.2125 12.48 51.6019 12.4213 51.9379 12.304C52.2792 12.1867 52.5645 12.024 52.7939 11.816C53.0285 11.6027 53.2045 11.3493 53.3219 11.056C53.4392 10.7627 53.4979 10.44 53.4979 10.088C53.4979 9.35733 53.2712 8.78667 52.8179 8.376C52.3699 7.96533 51.6872 7.76 50.7699 7.76H48.9299V12.48H50.7699ZM50.7699 6.536C51.4952 6.536 52.1245 6.62133 52.6579 6.792C53.1965 6.95733 53.6419 7.19467 53.9939 7.504C54.3459 7.81333 54.6072 8.18667 54.7779 8.624C54.9539 9.06133 55.0419 9.54933 55.0419 10.088C55.0419 10.6213 54.9485 11.1093 54.7619 11.552C54.5752 11.9947 54.3005 12.376 53.9379 12.696C53.5805 13.016 53.1352 13.2667 52.6019 13.448C52.0739 13.624 51.4632 13.712 50.7699 13.712H48.9299V18H47.3859V6.536H50.7699ZM60.1713 12.088C60.6193 12.088 61.0139 12.0347 61.3553 11.928C61.7019 11.816 61.9899 11.6613 62.2193 11.464C62.4539 11.2613 62.6299 11.0213 62.7473 10.744C62.8646 10.4667 62.9233 10.16 62.9233 9.824C62.9233 9.14133 62.6993 8.62667 62.2513 8.28C61.8033 7.93333 61.1313 7.76 60.2352 7.76H58.5393V12.088H60.1713ZM65.4673 18H64.0913C63.8086 18 63.6006 17.8907 63.4673 17.672L60.4913 13.576C60.4006 13.448 60.3019 13.3573 60.1953 13.304C60.0939 13.2453 59.9339 13.216 59.7153 13.216H58.5393V18H56.9953V6.536H60.2352C60.9606 6.536 61.5873 6.61067 62.1153 6.76C62.6433 6.904 63.0779 7.11467 63.4193 7.392C63.7659 7.66933 64.0219 8.00533 64.1873 8.4C64.3526 8.78933 64.4353 9.22667 64.4353 9.712C64.4353 10.1173 64.3713 10.496 64.2433 10.848C64.1153 11.2 63.9286 11.5173 63.6833 11.8C63.4433 12.0773 63.1473 12.3147 62.7953 12.512C62.4486 12.7093 62.0539 12.8587 61.6113 12.96C61.8086 13.072 61.9793 13.2347 62.1233 13.448L65.4673 18ZM74.0985 16.736L74.0905 18H67.0265V6.536H74.0905V7.8H68.5785V11.608H73.0425V12.824H68.5785V16.736H74.0985ZM77.8129 7.8V11.808H82.5249V13.072H77.8129V18H76.2609V6.536H83.3249V7.8H77.8129ZM92.3798 16.736L92.3718 18H85.3078V6.536H92.3718V7.8H86.8598V11.608H91.3238V12.824H86.8598V16.736H92.3798ZM102.34 15.632C102.425 15.632 102.5 15.6667 102.564 15.736L103.18 16.4C102.711 16.944 102.14 17.368 101.468 17.672C100.801 17.976 99.9935 18.128 99.0441 18.128C98.2228 18.128 97.4761 17.9867 96.8041 17.704C96.1321 17.416 95.5588 17.016 95.0841 16.504C94.6095 15.9867 94.2415 15.368 93.9801 14.648C93.7188 13.928 93.5881 13.136 93.5881 12.272C93.5881 11.408 93.7241 10.616 93.9961 9.896C94.2681 9.176 94.6495 8.55733 95.1401 8.04C95.6361 7.52267 96.2281 7.12267 96.9161 6.84C97.6041 6.552 98.3641 6.408 99.1961 6.408C100.012 6.408 100.732 6.53867 101.356 6.8C101.98 7.06133 102.529 7.416 103.004 7.864L102.492 8.576C102.46 8.62933 102.417 8.67467 102.364 8.712C102.316 8.744 102.249 8.76 102.164 8.76C102.068 8.76 101.951 8.70933 101.812 8.608C101.673 8.50133 101.492 8.384 101.268 8.256C101.044 8.128 100.764 8.01333 100.428 7.912C100.092 7.80533 99.6788 7.752 99.1881 7.752C98.5961 7.752 98.0548 7.856 97.5641 8.064C97.0735 8.26667 96.6495 8.56267 96.2921 8.952C95.9401 9.34133 95.6655 9.816 95.4681 10.376C95.2708 10.936 95.1721 11.568 95.1721 12.272C95.1721 12.9867 95.2735 13.624 95.4761 14.184C95.6841 14.744 95.9641 15.2187 96.3161 15.608C96.6735 15.992 97.0921 16.2853 97.5721 16.488C98.0575 16.6907 98.5801 16.792 99.1401 16.792C99.4815 16.792 99.7881 16.7733 100.06 16.736C100.337 16.6933 100.591 16.6293 100.82 16.544C101.055 16.4587 101.271 16.352 101.468 16.224C101.671 16.0907 101.871 15.9333 102.068 15.752C102.159 15.672 102.249 15.632 102.34 15.632ZM112.732 7.84H109.02V18H107.476V7.84H103.756V6.536H112.732V7.84ZM118.857 16.768C119.331 16.768 119.755 16.688 120.129 16.528C120.502 16.368 120.817 16.144 121.073 15.856C121.334 15.568 121.531 15.224 121.665 14.824C121.803 14.424 121.873 13.984 121.873 13.504V6.536H123.417V13.504C123.417 14.1653 123.31 14.7787 123.097 15.344C122.889 15.9093 122.587 16.4 122.193 16.816C121.803 17.2267 121.326 17.5493 120.761 17.784C120.195 18.0187 119.561 18.136 118.857 18.136C118.153 18.136 117.518 18.0187 116.953 17.784C116.387 17.5493 115.907 17.2267 115.513 16.816C115.118 16.4 114.814 15.9093 114.601 15.344C114.393 14.7787 114.289 14.1653 114.289 13.504V6.536H115.833V13.496C115.833 13.976 115.899 14.416 116.033 14.816C116.171 15.216 116.369 15.56 116.625 15.848C116.886 16.136 117.203 16.3627 117.577 16.528C117.955 16.688 118.382 16.768 118.857 16.768ZM129.374 12.088C129.822 12.088 130.217 12.0347 130.558 11.928C130.905 11.816 131.193 11.6613 131.422 11.464C131.657 11.2613 131.833 11.0213 131.95 10.744C132.068 10.4667 132.126 10.16 132.126 9.824C132.126 9.14133 131.902 8.62667 131.454 8.28C131.006 7.93333 130.334 7.76 129.438 7.76H127.742V12.088H129.374ZM134.67 18H133.294C133.012 18 132.804 17.8907 132.67 17.672L129.694 13.576C129.604 13.448 129.505 13.3573 129.398 13.304C129.297 13.2453 129.137 13.216 128.918 13.216H127.742V18H126.198V6.536H129.438C130.164 6.536 130.79 6.61067 131.318 6.76C131.846 6.904 132.281 7.11467 132.622 7.392C132.969 7.66933 133.225 8.00533 133.39 8.4C133.556 8.78933 133.638 9.22667 133.638 9.712C133.638 10.1173 133.574 10.496 133.446 10.848C133.318 11.2 133.132 11.5173 132.886 11.8C132.646 12.0773 132.35 12.3147 131.998 12.512C131.652 12.7093 131.257 12.8587 130.814 12.96C131.012 13.072 131.182 13.2347 131.326 13.448L134.67 18ZM143.302 16.736L143.294 18H136.23V6.536H143.294V7.8H137.782V11.608H142.246V12.824H137.782V16.736H143.302Z" fill="#006DFE"/>
</svg>
