<svg width="165" height="24" viewBox="0 0 165 24" fill="none" xmlns="http://www.w3.org/2000/svg">
<path d="M156.771 11H132V13H156.771V16L165 12L156.771 8V11Z" fill="#006DFE"/>
<path d="M7.968 16.696V18H1.464V6.536H3.008V16.696H7.968ZM16.7548 16.736L16.7468 18H9.68275V6.536H16.7468V7.8H11.2348V11.608H15.6988V12.824H11.2348V16.736H16.7548ZM25.0051 13.744L23.2051 9.08C23.1518 8.94133 23.0958 8.78133 23.0371 8.6C22.9785 8.41333 22.9225 8.216 22.8691 8.008C22.7571 8.44 22.6425 8.8 22.5251 9.088L20.7251 13.744H25.0051ZM28.2371 18H27.0371C26.8985 18 26.7865 17.9653 26.7011 17.896C26.6158 17.8267 26.5518 17.7387 26.5091 17.632L25.4371 14.864H20.2931L19.2211 17.632C19.1891 17.728 19.1278 17.8133 19.0371 17.888C18.9465 17.9627 18.8345 18 18.7011 18H17.5011L22.0851 6.536H23.6531L28.2371 18ZM32.9213 12.088C33.3693 12.088 33.7639 12.0347 34.1053 11.928C34.4519 11.816 34.7399 11.6613 34.9693 11.464C35.2039 11.2613 35.3799 11.0213 35.4973 10.744C35.6146 10.4667 35.6733 10.16 35.6733 9.824C35.6733 9.14133 35.4493 8.62667 35.0013 8.28C34.5533 7.93333 33.8813 7.76 32.9852 7.76H31.2893V12.088H32.9213ZM38.2173 18H36.8413C36.5586 18 36.3506 17.8907 36.2173 17.672L33.2413 13.576C33.1506 13.448 33.0519 13.3573 32.9453 13.304C32.8439 13.2453 32.6839 13.216 32.4653 13.216H31.2893V18H29.7453V6.536H32.9852C33.7106 6.536 34.3373 6.61067 34.8653 6.76C35.3933 6.904 35.8279 7.11467 36.1693 7.392C36.5159 7.66933 36.7719 8.00533 36.9373 8.4C37.1026 8.78933 37.1853 9.22667 37.1853 9.712C37.1853 10.1173 37.1213 10.496 36.9933 10.848C36.8653 11.2 36.6786 11.5173 36.4333 11.8C36.1933 12.0773 35.8973 12.3147 35.5453 12.512C35.1986 12.7093 34.8039 12.8587 34.3613 12.96C34.5586 13.072 34.7293 13.2347 34.8733 13.448L38.2173 18ZM49.0645 6.536V18H48.2885C48.1658 18 48.0618 17.9787 47.9765 17.936C47.8965 17.8933 47.8165 17.8213 47.7365 17.72L41.1045 9.08C41.1152 9.21333 41.1232 9.344 41.1285 9.472C41.1338 9.6 41.1365 9.72 41.1365 9.832V18H39.7765V6.536H40.5765C40.6458 6.536 40.7045 6.54133 40.7525 6.552C40.8005 6.55733 40.8432 6.57067 40.8805 6.592C40.9178 6.608 40.9552 6.63467 40.9925 6.672C41.0298 6.704 41.0698 6.74667 41.1125 6.8L47.7445 15.432C47.7338 15.2933 47.7232 15.16 47.7125 15.032C47.7072 14.8987 47.7045 14.7733 47.7045 14.656V6.536H49.0645ZM68.017 6.536V18H66.657V9.576C66.657 9.464 66.6597 9.344 66.665 9.216C66.6757 9.088 66.6863 8.95733 66.697 8.824L62.761 15.992C62.6383 16.232 62.4517 16.352 62.201 16.352H61.977C61.7263 16.352 61.5397 16.232 61.417 15.992L57.401 8.792C57.433 9.07467 57.449 9.336 57.449 9.576V18H56.089V6.536H57.233C57.3717 6.536 57.4783 6.54933 57.553 6.576C57.6277 6.60267 57.6997 6.67733 57.769 6.8L61.729 13.856C61.793 13.984 61.8543 14.1173 61.913 14.256C61.977 14.3947 62.0357 14.536 62.089 14.68C62.1423 14.536 62.1983 14.3947 62.257 14.256C62.3157 14.112 62.3797 13.976 62.449 13.848L66.337 6.8C66.401 6.67733 66.4703 6.60267 66.545 6.576C66.625 6.54933 66.7343 6.536 66.873 6.536H68.017ZM81.5404 12.272C81.5404 13.1307 81.4044 13.92 81.1324 14.64C80.8604 15.3547 80.4764 15.9707 79.9804 16.488C79.4844 17.0053 78.887 17.408 78.1884 17.696C77.495 17.9787 76.727 18.12 75.8844 18.12C75.0417 18.12 74.2737 17.9787 73.5804 17.696C72.887 17.408 72.2924 17.0053 71.7964 16.488C71.3004 15.9707 70.9164 15.3547 70.6444 14.64C70.3724 13.92 70.2364 13.1307 70.2364 12.272C70.2364 11.4133 70.3724 10.6267 70.6444 9.912C70.9164 9.192 71.3004 8.57333 71.7964 8.056C72.2924 7.53333 72.887 7.128 73.5804 6.84C74.2737 6.552 75.0417 6.408 75.8844 6.408C76.727 6.408 77.495 6.552 78.1884 6.84C78.887 7.128 79.4844 7.53333 79.9804 8.056C80.4764 8.57333 80.8604 9.192 81.1324 9.912C81.4044 10.6267 81.5404 11.4133 81.5404 12.272ZM79.9484 12.272C79.9484 11.568 79.8524 10.936 79.6604 10.376C79.4684 9.816 79.1964 9.344 78.8444 8.96C78.4924 8.57067 78.0657 8.272 77.5644 8.064C77.063 7.856 76.503 7.752 75.8844 7.752C75.271 7.752 74.7137 7.856 74.2124 8.064C73.711 8.272 73.2817 8.57067 72.9244 8.96C72.5724 9.344 72.3004 9.816 72.1084 10.376C71.9164 10.936 71.8204 11.568 71.8204 12.272C71.8204 12.976 71.9164 13.608 72.1084 14.168C72.3004 14.7227 72.5724 15.1947 72.9244 15.584C73.2817 15.968 73.711 16.264 74.2124 16.472C74.7137 16.6747 75.271 16.776 75.8844 16.776C76.503 16.776 77.063 16.6747 77.5644 16.472C78.0657 16.264 78.4924 15.968 78.8444 15.584C79.1964 15.1947 79.4684 14.7227 79.6604 14.168C79.8524 13.608 79.9484 12.976 79.9484 12.272ZM86.9369 12.088C87.3849 12.088 87.7795 12.0347 88.1209 11.928C88.4675 11.816 88.7555 11.6613 88.9849 11.464C89.2195 11.2613 89.3955 11.0213 89.5129 10.744C89.6302 10.4667 89.6889 10.16 89.6889 9.824C89.6889 9.14133 89.4649 8.62667 89.0169 8.28C88.5689 7.93333 87.8969 7.76 87.0009 7.76H85.3049V12.088H86.9369ZM92.2329 18H90.8569C90.5742 18 90.3662 17.8907 90.2329 17.672L87.2569 13.576C87.1662 13.448 87.0675 13.3573 86.9609 13.304C86.8595 13.2453 86.6995 13.216 86.4809 13.216H85.3049V18H83.7609V6.536H87.0009C87.7262 6.536 88.3529 6.61067 88.8809 6.76C89.4089 6.904 89.8435 7.11467 90.1849 7.392C90.5315 7.66933 90.7875 8.00533 90.9529 8.4C91.1182 8.78933 91.2009 9.22667 91.2009 9.712C91.2009 10.1173 91.1369 10.496 91.0089 10.848C90.8809 11.2 90.6942 11.5173 90.4489 11.8C90.2089 12.0773 89.9129 12.3147 89.5609 12.512C89.2142 12.7093 88.8195 12.8587 88.3769 12.96C88.5742 13.072 88.7449 13.2347 88.8889 13.448L92.2329 18ZM100.864 16.736L100.856 18H93.7921V6.536H100.856V7.8H95.3441V11.608H99.8081V12.824H95.3441V16.736H100.864Z" fill="#006DFE"/>
</svg>
