<svg width="131" height="24" viewBox="0 0 131 24" fill="none" xmlns="http://www.w3.org/2000/svg">
<path d="M122.771 11H98V13H122.771V16L131 12L122.771 8V11Z" fill="#006DFE"/>
<path d="M11.0653 6.536L6.39325 18H5.00125L0.32925 6.536H1.56925C1.70792 6.536 1.81992 6.57067 1.90525 6.64C1.99058 6.70933 2.05458 6.79733 2.09725 6.904L5.32925 14.992C5.39858 15.1733 5.46525 15.3707 5.52925 15.584C5.59858 15.7973 5.65992 16.0213 5.71325 16.256C5.76658 16.0213 5.82258 15.7973 5.88125 15.584C5.93992 15.3707 6.00392 15.1733 6.07325 14.992L9.29725 6.904C9.32925 6.81333 9.39058 6.73067 9.48125 6.656C9.57725 6.576 9.69192 6.536 9.82525 6.536H11.0653ZM14.1254 18H12.5734V6.536H14.1254V18ZM24.1298 16.736L24.1218 18H17.0578V6.536H24.1218V7.8H18.6098V11.608H23.0738V12.824H18.6098V16.736H24.1298ZM41.1481 6.536L37.5721 18H36.1801L33.2761 9.256C33.2495 9.17067 33.2228 9.08 33.1961 8.984C33.1748 8.888 33.1508 8.78667 33.1241 8.68C33.0975 8.78667 33.0708 8.888 33.0441 8.984C33.0175 9.08 32.9908 9.17067 32.9641 9.256L30.0441 18H28.6521L25.0761 6.536H26.3641C26.5028 6.536 26.6175 6.57067 26.7081 6.64C26.8041 6.70933 26.8655 6.79733 26.8921 6.904L29.2601 14.872C29.2975 15.016 29.3321 15.1707 29.3641 15.336C29.4015 15.5013 29.4361 15.6773 29.4681 15.864C29.5055 15.6773 29.5428 15.5013 29.5801 15.336C29.6228 15.1653 29.6681 15.0107 29.7161 14.872L32.4121 6.904C32.4441 6.81333 32.5055 6.73067 32.5961 6.656C32.6921 6.576 32.8068 6.536 32.9401 6.536H33.3881C33.5268 6.536 33.6388 6.57067 33.7241 6.64C33.8095 6.70933 33.8735 6.79733 33.9161 6.904L36.6041 14.872C36.6521 15.0107 36.6948 15.16 36.7321 15.32C36.7748 15.48 36.8148 15.648 36.8521 15.824C36.8788 15.648 36.9081 15.48 36.9401 15.32C36.9721 15.16 37.0068 15.0107 37.0441 14.872L39.4201 6.904C39.4468 6.808 39.5055 6.72267 39.5961 6.648C39.6921 6.57333 39.8068 6.536 39.9401 6.536H41.1481ZM52.2864 13.744L50.4864 9.08C50.433 8.94133 50.377 8.78133 50.3184 8.6C50.2597 8.41333 50.2037 8.216 50.1504 8.008C50.0384 8.44 49.9237 8.8 49.8064 9.088L48.0064 13.744H52.2864ZM55.5184 18H54.3184C54.1797 18 54.0677 17.9653 53.9824 17.896C53.897 17.8267 53.833 17.7387 53.7904 17.632L52.7184 14.864H47.5744L46.5024 17.632C46.4704 17.728 46.409 17.8133 46.3184 17.888C46.2277 17.9627 46.1157 18 45.9824 18H44.7824L49.3664 6.536H50.9344L55.5184 18ZM63.5305 16.696V18H57.0265V6.536H58.5705V16.696H63.5305ZM71.7493 16.696V18H65.2453V6.536H66.7893V16.696H71.7493Z" fill="#006DFE"/>
</svg>
